<?xml version="1.0" standalone="no"?>
<!DOCTYPE svg PUBLIC "-//W3C//DTD SVG 20010904//EN"
 "http://www.w3.org/TR/2001/REC-SVG-20010904/DTD/svg10.dtd">
<svg version="1.0" xmlns="http://www.w3.org/2000/svg"
 width="512.000000pt" height="512.000000pt" viewBox="0 0 512.000000 512.000000"
 preserveAspectRatio="xMidYMid meet">
<metadata>
Created by potrace 1.11, written by Peter Selinger 2001-2013
</metadata>
<g transform="translate(0.000000,512.000000) scale(0.100000,-0.100000)"
fill="#000000" stroke="none">
<path d="M2390 3694 c0 -5 -34 -9 -75 -9 -64 1 -75 -2 -70 -15 3 -10 1 -10 -9
3 -9 11 -15 14 -18 7 -2 -7 -22 -13 -44 -14 -22 -1 -45 -6 -52 -10 -7 -4 -12
-2 -12 5 0 8 -4 8 -12 2 -13 -10 -76 -23 -130 -26 -14 -1 -24 -5 -22 -8 6 -10
-22 -19 -46 -14 -11 2 -20 0 -20 -6 0 -5 -11 -9 -25 -9 -14 0 -25 -4 -25 -10
0 -5 -13 -10 -30 -10 -16 0 -30 -5 -30 -11 0 -6 -7 -9 -15 -5 -8 3 -15 1 -15
-4 0 -6 -4 -10 -9 -10 -5 0 -25 -7 -45 -15 -20 -8 -39 -15 -43 -16 -5 0 -11
-7 -16 -14 -4 -8 -15 -11 -24 -8 -11 4 -14 3 -9 -5 4 -7 1 -12 -8 -12 -9 0
-16 -4 -16 -10 0 -5 -7 -10 -15 -10 -8 0 -15 -5 -15 -11 0 -5 -4 -7 -10 -4 -5
3 -10 1 -10 -4 0 -6 -6 -11 -13 -11 -17 0 -57 -46 -49 -56 4 -4 2 -4 -5 0 -6
3 -19 -4 -27 -16 -9 -12 -16 -19 -16 -14 0 5 -10 -4 -22 -20 -13 -16 -26 -30
-30 -32 -5 -2 -8 -13 -8 -23 0 -11 -4 -18 -9 -15 -4 3 -21 -20 -37 -52 -16
-31 -32 -59 -35 -62 -3 -3 -5 -13 -3 -22 1 -10 -3 -18 -9 -18 -5 0 -8 -3 -4
-6 3 -4 0 -23 -8 -43 -7 -20 -17 -54 -21 -76 -10 -53 -12 -315 -2 -321 5 -3 8
-23 8 -45 0 -22 4 -38 9 -35 7 5 22 -49 25 -89 1 -5 3 -12 6 -15 15 -15 39
-68 33 -74 -3 -3 -1 -6 6 -6 7 0 9 -4 6 -10 -3 -5 -1 -10 4 -10 6 0 11 -9 11
-20 0 -11 5 -20 10 -20 6 0 10 -9 10 -21 0 -11 5 -17 10 -14 6 3 10 -3 10 -14
0 -12 4 -21 10 -21 5 0 7 -7 4 -15 -4 -8 -1 -15 5 -15 6 0 11 -7 11 -15 0 -8
4 -15 9 -15 5 0 12 -13 16 -30 4 -16 13 -34 22 -38 8 -5 15 -13 15 -18 1 -16
11 -38 29 -65 10 -14 16 -29 12 -33 -3 -3 -1 -6 5 -6 7 0 12 -8 12 -17 0 -9 3
-14 6 -10 4 3 14 -8 23 -26 24 -46 45 -81 52 -87 3 -3 14 -19 24 -37 10 -18
22 -30 27 -27 5 3 7 2 6 -3 -4 -16 14 -53 23 -48 5 4 9 -1 9 -9 0 -8 15 -31
34 -50 19 -19 32 -37 29 -40 -4 -3 -1 -6 5 -6 7 0 12 -7 12 -15 0 -8 7 -15 17
-15 9 0 14 -3 10 -6 -3 -3 12 -24 34 -46 21 -22 36 -45 33 -50 -4 -6 -2 -8 3
-5 6 4 14 0 17 -9 3 -8 10 -13 14 -10 5 3 15 -6 22 -19 7 -13 17 -22 22 -19 4
3 8 0 8 -6 0 -14 25 -40 39 -40 6 0 11 -4 11 -9 0 -5 9 -13 20 -16 11 -4 18
-10 16 -14 -3 -4 11 -15 30 -26 19 -10 34 -22 34 -27 0 -4 7 -8 15 -8 8 0 15
-5 15 -11 0 -6 7 -9 15 -5 8 3 15 1 15 -4 0 -6 7 -10 16 -10 8 0 13 -4 10 -9
-6 -9 50 -27 68 -22 5 1 6 -5 3 -12 -4 -11 2 -14 24 -12 16 1 26 -1 23 -6 -3
-5 10 -9 30 -9 19 0 36 -5 38 -10 2 -6 41 -11 94 -12 l91 -2 2 -100 c2 -113 3
-125 15 -145 6 -9 5 -12 -1 -8 -6 4 -10 -6 -11 -24 0 -16 3 -27 8 -24 10 6 8
-15 -4 -34 -6 -9 -5 -12 0 -8 6 3 10 -5 10 -17 0 -24 -22 -31 -43 -13 -7 5
-13 6 -13 3 0 -4 -6 -1 -14 7 -9 8 -31 13 -55 12 -23 -1 -41 2 -41 7 0 5 -5 6
-12 2 -7 -4 -25 -9 -42 -11 -16 -2 -34 -8 -41 -13 -7 -5 -15 -7 -18 -3 -4 3
-7 1 -7 -6 0 -7 -4 -10 -9 -6 -6 3 -19 -5 -30 -17 -12 -12 -21 -19 -21 -15 0
3 -15 -8 -33 -26 -18 -18 -32 -37 -29 -43 2 -7 -7 -19 -20 -28 -12 -9 -19 -16
-15 -16 3 0 2 -12 -4 -28 -18 -44 -12 -150 11 -187 25 -41 56 -76 67 -76 13 0
2 -81 -14 -101 -6 -7 -9 -21 -8 -31 2 -9 -1 -15 -6 -11 -5 3 -9 -6 -9 -20 0
-14 -6 -26 -12 -26 -10 0 -9 -3 1 -9 10 -6 10 -10 1 -16 -6 -4 -9 -14 -6 -22
3 -8 2 -12 -3 -9 -9 6 -31 -37 -31 -62 0 -12 -3 -13 -8 -5 -5 7 -11 -1 -18
-23 l-11 -34 544 0 c299 0 542 4 539 8 -3 5 -8 23 -11 41 -3 18 -7 38 -8 44
-1 7 -6 15 -12 19 -5 4 -10 20 -10 37 0 16 -4 33 -8 37 -12 13 -8 36 6 28 9
-6 8 -3 -1 8 -10 12 -11 22 -3 36 6 11 7 22 4 26 -3 3 -1 6 5 6 6 0 22 12 35
26 19 20 31 25 63 22 31 -2 41 -9 54 -33 8 -16 18 -31 23 -33 4 -2 7 -12 7
-23 0 -10 5 -19 10 -19 6 0 10 -9 10 -19 0 -11 5 -21 10 -23 6 -2 12 -13 13
-26 0 -12 6 -22 11 -22 5 0 7 -2 4 -6 -3 -3 -2 -20 2 -39 5 -21 3 -38 -4 -46
-8 -9 -8 -10 2 -4 10 5 13 1 10 -16 l-3 -24 130 -2 131 -1 -1 28 c0 15 -4 26
-9 22 -5 -3 -7 1 -4 10 4 8 0 41 -7 73 -8 32 -11 63 -8 68 3 6 1 7 -5 3 -11
-6 -17 12 -13 37 0 4 -4 7 -9 7 -6 0 -10 12 -10 26 0 14 -3 23 -8 20 -4 -2
-12 7 -19 20 -8 18 -8 22 0 17 7 -4 6 1 -2 10 -7 9 -10 17 -6 17 5 0 -2 9 -15
20 -13 11 -20 20 -16 20 4 0 -5 16 -20 36 -17 21 -22 34 -13 32 8 -2 13 3 11
10 -1 6 3 12 10 12 6 0 8 3 5 7 -4 3 0 17 9 31 11 17 12 22 3 16 -12 -6 -12
-5 -1 8 7 9 13 36 15 62 1 25 7 46 12 46 7 0 7 3 0 8 -5 4 -11 31 -12 61 -1
30 -6 57 -11 60 -10 7 -26 43 -24 54 1 4 -2 7 -7 7 -6 0 -22 11 -37 25 -15 14
-32 25 -39 25 -7 0 -18 6 -24 14 -7 8 -21 13 -32 11 -10 -2 -19 -1 -19 3 0 12
-76 5 -111 -11 -19 -8 -41 -18 -49 -21 -35 -15 -59 -33 -53 -39 8 -8 -2 -9
-130 -9 -54 0 -101 3 -105 6 -6 7 -8 23 -13 101 -1 28 -7 53 -13 57 -8 5 -7 8
1 8 9 0 10 7 3 24 -5 15 -5 27 3 35 6 6 7 11 1 11 -5 0 -10 48 -10 110 -2 103
-1 110 18 110 10 0 16 5 13 10 -3 6 1 10 9 10 9 0 16 5 16 10 0 6 3 9 8 8 8
-3 48 24 100 69 20 18 43 33 50 33 7 0 11 4 7 9 -3 5 3 12 14 16 11 3 22 12
25 20 3 8 13 15 21 15 9 0 13 5 10 10 -3 6 -2 10 4 10 5 0 13 9 16 20 3 11 12
20 18 20 7 0 26 16 42 36 17 20 41 48 55 63 42 45 85 103 83 112 -2 4 6 10 16
14 17 5 35 38 32 58 -1 4 5 7 13 7 8 0 17 11 20 25 4 14 10 25 15 25 5 0 18
17 29 38 58 109 70 130 76 125 3 -4 6 0 6 8 0 20 23 69 33 69 4 0 7 9 7 19 0
11 6 26 13 33 17 19 38 79 30 91 -3 6 -1 7 5 3 7 -4 12 -1 12 9 0 8 4 23 9 33
14 26 24 55 25 72 0 8 4 18 8 21 5 3 11 16 14 30 2 13 9 47 15 74 6 28 12 64
13 82 1 18 5 35 9 39 12 12 8 26 -5 19 -7 -4 -6 -1 2 7 13 10 15 37 15 133 0
66 -5 127 -10 135 -5 8 -10 30 -12 50 -3 37 -10 85 -13 85 -1 0 -4 13 -6 30
-3 16 -12 37 -20 46 -8 8 -11 19 -7 22 3 4 1 7 -5 7 -7 0 -12 12 -12 27 0 14
-3 23 -7 20 -3 -4 -14 11 -24 33 -10 22 -23 40 -29 40 -5 0 -10 5 -10 11 0 13
-56 80 -62 74 -2 -2 -12 9 -23 26 -11 16 -31 32 -43 36 -18 4 -21 8 -10 14 10
7 9 9 -5 9 -10 0 -27 9 -39 20 -12 10 -25 17 -30 14 -4 -3 -8 0 -8 5 0 6 -7
11 -15 11 -8 0 -15 5 -15 11 0 5 -4 7 -10 4 -5 -3 -10 2 -10 12 0 15 -2 16
-10 3 -7 -11 -10 -11 -10 -2 0 7 -4 11 -9 7 -5 -3 -12 -1 -16 5 -3 5 -15 10
-26 10 -11 0 -18 4 -15 9 5 8 -58 27 -76 23 -5 -1 -8 2 -8 8 0 6 -3 9 -7 9 -5
-1 -10 0 -13 1 -16 6 -50 13 -87 17 -24 3 -43 9 -43 13 0 4 -16 7 -36 5 -20
-1 -42 4 -50 12 -11 11 -14 12 -14 1 0 -8 -3 -9 -8 -3 -4 6 -33 11 -65 10 -31
0 -57 3 -57 8 0 4 -7 7 -16 7 -9 0 -12 -5 -8 -12 6 -10 5 -10 -7 -1 -21 17
-362 16 -352 -1 4 -6 -1 -5 -10 3 -9 7 -17 10 -17 5z m-250 -850 c0 -8 -19
-13 -24 -6 -3 5 1 9 9 9 8 0 15 -2 15 -3z m-45 -624 c3 -6 -1 -7 -9 -4 -18 7
-21 14 -7 14 6 0 13 -4 16 -10z"/>
</g>
</svg>
